<?xml version="1.0" encoding="UTF-8"?>
<svg id="Camada_13" xmlns="http://www.w3.org/2000/svg" version="1.1" viewBox="0 0 408 150">
  <!-- Generator: Adobe Illustrator 29.6.0, SVG Export Plug-In . SVG Version: 2.1.1 Build 207)  -->
  <defs>
    <style>
      .st0 {
        fill: #00af00;
      }

      .st1 {
        fill: #1d1d1b;
      }

      .st2 {
        fill: #ccc;
      }
    </style>
  </defs>
  <path class="st1" d="M20.37,62.14c.22.53,5.61,12.91,20.5,12.71,16.52-.23,23.25-11.23,24.51-17.02l-4.13-.89c-1.01,4.65-6.57,13.5-20.44,13.69-11.99.16-16.37-9.71-16.55-10.13l-3.89,1.65Z"/>
  <path class="st1" d="M23.89,6.91h0s0-.02,0-.03c0,0,0-.02,0-.03h0c-.54-3.91-3.41-2.91-3.41-2.91l-6.56,1.92.29,2.25v.05s.3,2.25.3,2.25l6.83.17s3.04.23,2.55-3.69Z"/>
  <path class="st1" d="M48.12,3.74h0s0-.02,0-.03c0,0,0-.02,0-.03h0C47.63-.23,50.67,0,50.67,0l6.83.17.29,2.25v.05s.3,2.25.3,2.25l-6.56,1.92s-2.87,1.01-3.41-2.91Z"/>
  <path class="st0" d="M23.24,60.01L4.73,23.77c-.05-.09-2.95-5.45-.87-9.45,1.33-2.56,4.48-4.13,9.37-4.67l-.31-2.8c-5.89.65-9.78,2.73-11.57,6.18-2.76,5.34.75,11.78.9,12.05l18.39,36,2.61-1.08Z"/>
  <path class="st0" d="M71.48,3.87c-2.61-2.88-6.91-3.89-12.77-3l.42,2.78c4.86-.74,8.32-.03,10.26,2.1,3.03,3.33,1.61,9.25,1.58,9.36l-8.87,41.17,2.75.61,8.86-41.14c.08-.3,1.81-7.43-2.23-11.88Z"/>
  <path class="st1" d="M208.24,99.79c-.92-.54-2.41-.28-2.9.75-1.02,2.16-2.23,4.23-3.67,6.14h0s-.02.03-.03.06c-.02.02-.03.03-.04.05-.09.11-.22.27-.24.3-.18.22-.35.43-.54.65-.38.44-.77.87-1.17,1.29-.75.78-1.55,1.52-2.39,2.21-.17.15-.35.3-.53.44,0,0,0,0,0,0t-.02.02s-.03.02-.04.03c0,0-.02,0-.03.02-.02.02-.04.03-.05.04,0,0,0,0-.02,0-.1.07-.19.14-.29.21-.44.32-.88.63-1.33.92-.93.61-1.88,1.17-2.86,1.67-.46.23-.92.46-1.39.67-.24.11-.49.22-.74.33-.11.04-.52.21-.6.24-1.03.41-2.09.77-3.15,1.08-4.84,1.43-8.94,1.87-13.97,1.95-2.61.05-5.23-.03-7.84-.22-1.4-.1-2.8-.23-4.2-.38-1.44-.15-2.75-.32-3.95-.5-12.16-1.74-24.1-4.89-35.9-8.28-12.06-3.45-24.01-7.27-36.1-10.63-10.36-2.88-20.96-5.61-31.73-6.4-1.08-.08-2.17-.14-3.26-.16-1.25-9.53-2.54-19.42-2.54-19.42l-4.65.61s1.27,9.73,2.5,19.17c-12.35.19-22.93,4.21-31.33,12.11-11.15,10.49-11.47,24.1-6.84,32.94,5.01,9.55,15.09,14.01,26.33,11.62,22.1-4.7,19.5-34.41,18.63-41.07-.09-.7-.16-1.15-.19-1.28,0,0-.74-5.68-1.23-9.48-.1-.39-.18-.7-.23-.97,2.15.07,4.3.24,6.44.5.3.03.59.07.89.11.11,0,.22.03.33.04-.04,0-.03,0,.2.03.64.09,1.28.19,1.92.29,1.28.2,2.56.42,3.83.67,5.52,1.03,10.97,2.37,16.39,3.83,12.2,3.28,24.22,7.12,36.35,10.65,12,3.5,24.11,6.82,36.47,8.8,10.62,1.71,21.75,2.64,32.33.19,9.32-2.16,17.48-7.48,22.44-15.77.63-1.04,1.19-2.11,1.71-3.21.49-1.03.29-2.28-.75-2.89ZM31.72,144.78c-9.08,1.93-17.21-1.6-21.19-9.22-3.8-7.26-3.45-18.55,5.9-27.35,8.38-7.88,18.46-10.77,28.74-10.82.57,4.34,1.35,10.31,1.35,10.31,0,.03.05.31.12.8.66,5.07,3.34,32.39-14.91,36.27Z"/>
  <path class="st1" d="M201.66,106.69s-.02.03-.03.05c-.02.02-.03.03-.04.05.02-.02.03-.03.03-.05.02-.02.03-.03.03-.04h0Z"/>
  <path class="st2" d="M225.78,90.72c-2.57,4.74-7.97,6.97-12.96,5.72l-3.6,6.64-4.23-2.3,3.5-6.45c-4.39-3.4-5.79-9.59-3.07-14.63,3.05-5.62,10.07-7.71,15.69-4.66,5.63,3.04,7.71,10.06,4.67,15.69Z"/>
  <path class="st0" d="M210.75,68.9c-4.36,1.3-7.95,4.21-10.11,8.21-2.16,4-2.64,8.6-1.35,12.95.75,2.52,2.04,4.77,3.76,6.65l1.48-2.73c-3.39-4.3-4.12-10.38-1.35-15.49,3.71-6.85,12.29-9.4,19.14-5.69,6.85,3.71,9.4,12.29,5.69,19.14-2.77,5.11-8.26,7.83-13.71,7.34l-1.48,2.73c2.51.42,5.11.26,7.63-.49,4.36-1.3,7.95-4.21,10.11-8.21,2.16-4,2.64-8.6,1.35-12.95-1.3-4.36-4.21-7.95-8.21-10.11-4-2.16-8.6-2.64-12.95-1.35Z"/>
  <path d="M90.96,10.2h34.72l-2.08,9.65h-20.98l-2.3,11.22h20.07l-2.05,9.72h-20.14l-4.46,21.35h-13.85l11.07-51.94Z"/>
  <path d="M157.45,41.48l-2.23,10.93c-.49,2.24-.85,4.08-1.08,5.52s-.4,2.84-.49,4.2h-11.15l.73-5.85c-1.49,2.19-3.35,3.86-5.59,4.99-2.24,1.13-4.82,1.7-7.75,1.7-3.9,0-7.02-1.05-9.36-3.14-2.34-2.1-3.51-4.87-3.51-8.33,0-4.41,1.99-7.85,5.96-10.31,3.97-2.46,9.55-3.69,16.74-3.69.85,0,1.79.03,2.81.09,1.02.06,2.16.15,3.4.27.02-.15.04-.31.06-.49.01-.18.02-.43.02-.75,0-1.97-.63-3.47-1.9-4.48-1.27-1.01-3.11-1.52-5.52-1.52-2.24,0-4.41.24-6.51.73-2.1.49-4.12,1.22-6.07,2.19l1.57-8.99c2.12-.75,4.23-1.32,6.34-1.7,2.11-.38,4.26-.57,6.45-.57,5.63,0,10.02,1.09,13.18,3.27s4.73,5.18,4.73,9.01c0,.88-.07,1.9-.22,3.07s-.35,2.45-.62,3.84ZM144.37,44.55c-.49-.05-.99-.08-1.52-.11-.52-.02-1.3-.04-2.32-.04-3.56,0-6.27.51-8.13,1.52-1.86,1.01-2.8,2.49-2.8,4.44,0,1.29.46,2.34,1.37,3.14s2.1,1.21,3.56,1.21c2.46,0,4.6-.93,6.41-2.78,1.81-1.85,2.95-4.31,3.42-7.38Z"/>
  <path d="M171.53,5.99h13.3l-11.88,56.14h-13.34l11.92-56.14Z"/>
  <path d="M222.34,46.35h-27.6c.24,2.83,1.17,4.92,2.78,6.27,1.61,1.35,3.97,2.03,7.09,2.03,2.12,0,4.3-.25,6.52-.75,2.23-.5,4.42-1.22,6.56-2.18l-1.5,9.5c-2.29.73-4.63,1.28-7.02,1.64s-4.79.55-7.2.55c-5.95,0-10.65-1.62-14.11-4.86-3.46-3.24-5.19-7.64-5.19-13.19,0-3.12.62-6.2,1.86-9.23,1.24-3.03,2.91-5.6,5.01-7.69,2.05-2,4.51-3.5,7.4-4.51,2.89-1.01,6.13-1.52,9.74-1.52,5.31,0,9.4,1.44,12.26,4.31,2.86,2.88,4.3,6.97,4.3,12.28,0,1.1-.07,2.26-.22,3.49-.15,1.23-.38,2.52-.69,3.86ZM212.07,38.93c.07-.49.12-.86.15-1.12.02-.26.04-.48.04-.68,0-2.14-.61-3.84-1.83-5.08-1.22-1.24-2.85-1.86-4.9-1.86s-3.95.77-5.56,2.32c-1.61,1.55-2.78,3.69-3.51,6.41h15.61Z"/>
  <path d="M94.76,74.19l-1.68,5.07c-.79-.36-1.55-.63-2.31-.82-.75-.19-1.49-.28-2.21-.28-1.94,0-3.51.56-4.7,1.67-1.19,1.11-1.79,2.57-1.79,4.38,0,1.58.49,2.84,1.47,3.76.98.93,2.3,1.39,3.96,1.39.67,0,1.34-.08,2.03-.24.69-.16,1.4-.41,2.15-.74l-.86,5.55c-1.12.29-2.17.51-3.16.65-.99.14-1.94.21-2.84.21-3.18,0-5.71-.89-7.6-2.67-1.88-1.78-2.83-4.14-2.83-7.1,0-3.66,1.22-6.61,3.65-8.85s5.66-3.36,9.66-3.36c1.2,0,2.38.11,3.55.34,1.17.23,2.34.57,3.49,1.04Z"/>
  <path d="M106.49,72.86c3.39,0,6.06.88,8.01,2.64,1.94,1.76,2.92,4.17,2.92,7.25,0,3.69-1.24,6.66-3.73,8.92-2.49,2.26-5.78,3.39-9.88,3.39-3.35,0-5.99-.86-7.92-2.58s-2.89-4.07-2.89-7.05c0-3.83,1.22-6.89,3.64-9.16,2.43-2.28,5.71-3.41,9.85-3.41ZM110.01,82.42c0-1.45-.36-2.61-1.07-3.46-.71-.86-1.67-1.29-2.87-1.29-1.54,0-2.87.75-3.97,2.24-1.1,1.49-1.66,3.31-1.66,5.45,0,1.4.38,2.54,1.13,3.42.75.89,1.72,1.33,2.91,1.33,1.53,0,2.84-.74,3.91-2.22,1.08-1.48,1.62-3.3,1.62-5.47Z"/>
  <path d="M153.69,82.36l-2.62,12.08h-7.01l2.22-10.56c.12-.55.21-1.04.27-1.47.06-.43.09-.81.09-1.13,0-.77-.2-1.38-.59-1.83-.39-.45-.93-.67-1.61-.67-.56,0-1.08.12-1.56.36-.48.24-.91.59-1.28,1.06-.68.87-1.21,2.33-1.6,4.39-.08.43-.15.75-.2.98l-1.88,8.86h-7.45l2.26-10.54c.11-.49.19-.98.24-1.46.05-.48.08-.95.08-1.42,0-.72-.19-1.27-.57-1.66-.38-.39-.92-.58-1.63-.58-1.09,0-1.98.42-2.67,1.25-.69.83-1.21,2.15-1.59,3.94l-2.26,10.46h-7.45l4.51-21.22h6.29l-.82,3.85c1.21-1.45,2.41-2.51,3.58-3.17s2.44-1,3.78-1c1.49,0,2.72.34,3.67,1.03.96.69,1.66,1.72,2.1,3.1,1.19-1.48,2.37-2.54,3.54-3.17,1.18-.64,2.5-.96,3.96-.96,1.98,0,3.55.59,4.7,1.78,1.15,1.19,1.73,2.8,1.73,4.83,0,.48-.02.96-.07,1.43-.05.47-.12.95-.21,1.43Z"/>
  <path d="M179.33,72.86c3.39,0,6.06.88,8.01,2.64,1.94,1.76,2.92,4.17,2.92,7.25,0,3.69-1.24,6.66-3.73,8.92-2.49,2.26-5.78,3.39-9.88,3.39-3.35,0-5.99-.86-7.92-2.58s-2.89-4.07-2.89-7.05c0-3.83,1.22-6.89,3.64-9.16,2.43-2.28,5.71-3.41,9.85-3.41ZM182.84,82.42c0-1.45-.36-2.61-1.07-3.46-.71-.86-1.67-1.29-2.87-1.29-1.54,0-2.87.75-3.97,2.24-1.1,1.49-1.66,3.31-1.66,5.45,0,1.4.38,2.54,1.13,3.42.75.89,1.72,1.33,2.91,1.33,1.53,0,2.84-.74,3.91-2.22,1.08-1.48,1.62-3.3,1.62-5.47Z"/>
  <path class="st0" d="M231.23,16.45h20.42l4.46,41.82c.22,2,.38,3.97.49,5.93s.16,3.88.16,5.77c0,1.34-.03,2.69-.08,4.03s-.14,2.67-.24,3.97h.54c.73-2.54,1.67-5.21,2.83-8,1.16-2.79,2.56-5.74,4.19-8.82l23.41-44.7h21.78l-42.96,77.37h-24.83l-10.18-77.37Z"/>
  <path class="st0" d="M355.16,70.3h-41.11c.36,4.21,1.74,7.32,4.14,9.34,2.4,2.01,5.92,3.02,10.56,3.02,3.16,0,6.4-.37,9.72-1.12,3.32-.74,6.58-1.82,9.77-3.24l-2.23,14.16c-3.41,1.09-6.9,1.91-10.45,2.45-3.56.54-7.13.82-10.73.82-8.86,0-15.86-2.41-21.02-7.24-5.16-4.83-7.73-11.38-7.73-19.66,0-4.65.93-9.23,2.78-13.75,1.85-4.52,4.34-8.34,7.46-11.46,3.05-2.98,6.72-5.22,11.03-6.72,4.3-1.51,9.14-2.26,14.51-2.26,7.91,0,14,2.14,18.27,6.42,4.26,4.28,6.4,10.38,6.4,18.29,0,1.63-.11,3.37-.33,5.2-.22,1.83-.56,3.75-1.04,5.74ZM339.86,59.25c.11-.73.18-1.28.22-1.66.04-.38.05-.72.05-1.01,0-3.19-.91-5.72-2.72-7.57-1.82-1.85-4.25-2.78-7.3-2.78s-5.88,1.15-8.28,3.46c-2.4,2.31-4.14,5.49-5.23,9.56h23.25Z"/>
  <path class="st0" d="M397.63,17.33l-4.08,19.17h14.16l-2.94,13.72h-14.16l-4.25,19.98c-.25,1.13-.44,2.12-.57,2.99-.13.87-.19,1.54-.19,2.02,0,2.11.49,3.62,1.47,4.55.98.93,2.58,1.39,4.79,1.39.83,0,1.81-.1,2.94-.3s2.34-.48,3.65-.84l-2.94,13.72c-2.43.4-4.55.7-6.34.9-1.8.2-3.35.3-4.65.3-5.99,0-10.61-1.52-13.86-4.55-3.25-3.03-4.87-7.3-4.87-12.82,0-.94.05-1.88.14-2.8s.23-1.9.41-2.91l4.57-21.62h-11.71l2.89-13.72h11.71l2.89-13.61,20.96-5.55Z"/>
</svg>